<svg width="25" height="14" viewBox="0 0 25 14" fill="none" xmlns="http://www.w3.org/2000/svg">
<path fill-rule="evenodd" clip-rule="evenodd" d="M17.1592 12.7548C16.9181 12.9959 16.9181 13.3867 17.1592 13.6278C17.4002 13.8689 17.7911 13.8689 18.0321 13.6278L23.8192 7.84073C24.0603 7.59966 24.0603 7.20882 23.8192 6.96775L18.0321 1.18069C17.7911 0.939623 17.4002 0.939623 17.1592 1.18069C16.9181 1.42175 16.9181 1.8126 17.1592 2.05366L21.9684 6.86287L1.57902 6.86287C1.25941 6.86287 1.00032 7.12197 1.00032 7.44158C1.00032 7.76119 1.25941 8.02028 1.57902 8.02028L21.8937 8.02029L17.1592 12.7548Z" fill="#FC876D"/>
<path d="M17.1592 13.6278L17.2652 13.5217L17.2652 13.5217L17.1592 13.6278ZM17.1592 12.7548L17.2652 12.8609L17.2652 12.8609L17.1592 12.7548ZM18.0321 13.6278L17.9261 13.5217L18.0321 13.6278ZM23.8192 7.84073L23.7131 7.73466L23.8192 7.84073ZM23.8192 6.96775L23.9253 6.86169L23.9253 6.86169L23.8192 6.96775ZM18.0321 1.18069L17.9261 1.28676L18.0321 1.18069ZM17.1592 1.18069L17.2652 1.28675L17.2652 1.28675L17.1592 1.18069ZM17.1592 2.05366L17.2652 1.9476L17.2652 1.9476L17.1592 2.05366ZM21.9684 6.86287L21.9684 7.01287L22.3305 7.01287L22.0744 6.75681L21.9684 6.86287ZM1.57902 6.86287L1.57902 6.71287L1.57902 6.86287ZM1.57902 8.02028L1.57902 7.87028L1.57902 8.02028ZM21.8937 8.02029L21.9998 8.12635L22.2558 7.87029L21.8937 7.87029L21.8937 8.02029ZM17.2652 13.5217C17.0827 13.3392 17.0827 13.0434 17.2652 12.8609L17.0531 12.6488C16.7534 12.9484 16.7534 13.4342 17.0531 13.7339L17.2652 13.5217ZM17.9261 13.5217C17.7436 13.7042 17.4477 13.7042 17.2652 13.5217L17.0531 13.7339C17.3527 14.0335 17.8386 14.0335 18.1382 13.7339L17.9261 13.5217ZM23.7131 7.73466L17.9261 13.5217L18.1382 13.7339L23.9253 7.9468L23.7131 7.73466ZM23.7131 7.07382C23.8956 7.25631 23.8956 7.55218 23.7131 7.73466L23.9253 7.9468C24.2249 7.64715 24.2249 7.16133 23.9253 6.86169L23.7131 7.07382ZM17.9261 1.28676L23.7131 7.07382L23.9253 6.86169L18.1382 1.07462L17.9261 1.28676ZM17.2652 1.28675C17.4477 1.10427 17.7436 1.10427 17.9261 1.28676L18.1382 1.07462C17.8386 0.774979 17.3527 0.774979 17.0531 1.07462L17.2652 1.28675ZM17.2652 1.9476C17.0827 1.76511 17.0827 1.46924 17.2652 1.28675L17.0531 1.07462C16.7535 1.37427 16.7535 1.86009 17.0531 2.15973L17.2652 1.9476ZM22.0744 6.75681L17.2652 1.9476L17.0531 2.15973L21.8623 6.96894L22.0744 6.75681ZM1.57902 7.01287L21.9684 7.01287L21.9684 6.71287L1.57902 6.71287L1.57902 7.01287ZM1.15032 7.44158C1.15032 7.20481 1.34226 7.01287 1.57902 7.01287L1.57902 6.71287C1.17657 6.71287 0.850318 7.03912 0.850318 7.44158L1.15032 7.44158ZM1.57902 7.87028C1.34226 7.87028 1.15032 7.67835 1.15032 7.44158L0.850318 7.44158C0.850318 7.84403 1.17657 8.17028 1.57902 8.17028L1.57902 7.87028ZM21.8937 7.87029L1.57902 7.87028L1.57902 8.17028L21.8937 8.17029L21.8937 7.87029ZM17.2652 12.8609L21.9998 8.12635L21.7876 7.91422L17.0531 12.6488L17.2652 12.8609Z" fill="#FC876D"/>
</svg>
