<svg width="40" height="40" viewBox="0 0 40 40" fill="none" xmlns="http://www.w3.org/2000/svg">
<path fill-rule="evenodd" clip-rule="evenodd" d="M28.1395 4.18604C31.3953 6.0465 32.3256 7.90697 32.3256 9.99999V23.0232L35.3488 22.093L35.5814 19.3023V11.8605L35.3488 5.81394L34.4186 4.41859L30.9302 4.18604H28.1395ZM12.093 13.0232C8.37208 15.1163 7.90697 17.4418 7.90697 19.5349V31.3953L5.34883 30.6977L4.65115 28.1395V20.6977L4.88371 14.6512L5.81394 13.2558L9.30232 13.0232H12.093Z" fill="#EDEAFF"/>
<path fill-rule="evenodd" clip-rule="evenodd" d="M16.8477 3.72095H33.1449C34.8731 3.72095 36.279 5.12689 36.279 6.85503V20.1435C36.279 22.0474 35.2456 23.2776 33.6464 23.2776H32.6524L29.0751 26.855C28.9552 26.9748 28.7948 27.0386 28.6317 27.0386C28.5509 27.0386 28.4695 27.0229 28.392 26.9908C28.1578 26.8938 28.005 26.6652 28.005 26.4117V23.2776H26.7514V28.9189C26.7514 30.6471 25.3455 32.053 23.6173 32.053H13.2211L9.64378 35.6304C9.52387 35.7502 9.36353 35.814 9.20044 35.814C9.11964 35.814 9.03822 35.7984 8.96068 35.7662C8.7265 35.6692 8.57375 35.4406 8.57375 35.1871V32.053H7.32011C5.59198 32.053 4.18604 30.6471 4.18604 28.9189V15.6304C4.18604 13.9023 5.59198 12.4964 7.32011 12.4964H13.7136V6.85503C13.7136 5.12689 15.1196 3.72095 16.8477 3.72095ZM23.6173 30.7994C24.6542 30.7994 25.4978 29.9558 25.4978 28.9189V15.6304C25.4978 14.5936 24.6542 13.75 23.6173 13.75H7.32011C6.28324 13.75 5.43967 14.5936 5.43967 15.6304V28.9189C5.43967 29.9558 6.28324 30.7994 7.32011 30.7994H9.20056C9.54675 30.7994 9.82738 31.08 9.82738 31.4262V33.6738L12.5182 30.983C12.6358 30.8654 12.7952 30.7994 12.9615 30.7994H23.6173ZM33.6464 22.024C34.8462 22.024 35.0254 20.8458 35.0254 20.1435V6.85503C35.0254 5.81815 34.1818 4.97458 33.1449 4.97458H16.8477C15.8108 4.97458 14.9673 5.81815 14.9673 6.85503V12.4964H23.6173C25.3455 12.4964 26.7514 13.9023 26.7514 15.6304V16.2573H30.6377C30.9838 16.2573 31.2645 16.5379 31.2645 16.8841C31.2645 17.2303 30.9838 17.5109 30.6377 17.5109H26.7514V22.024H28.6318C28.978 22.024 29.2587 22.3046 29.2587 22.6508V24.8984L31.9495 22.2076C32.067 22.09 32.2265 22.024 32.3927 22.024H33.6464ZM19.355 8.73547H30.6377C30.9839 8.73547 31.2645 9.01609 31.2645 9.36228C31.2645 9.70847 30.9839 9.9891 30.6377 9.9891H19.355C19.0088 9.9891 18.7282 9.70847 18.7282 9.36228C18.7282 9.01609 19.0088 8.73547 19.355 8.73547ZM30.6377 12.4964H28.1304C27.7843 12.4964 27.5036 12.777 27.5036 13.1232C27.5036 13.4694 27.7843 13.75 28.1304 13.75H30.6377C30.9839 13.75 31.2645 13.4694 31.2645 13.1232C31.2645 12.777 30.9839 12.4964 30.6377 12.4964ZM10.4542 18.1377C10.4542 18.4831 10.1728 18.7645 9.8274 18.7645C9.48202 18.7645 9.20058 18.4831 9.20058 18.1377C9.20058 17.7923 9.48202 17.5109 9.8274 17.5109C10.1728 17.5109 10.4542 17.7923 10.4542 18.1377ZM21.1101 17.5109H12.3347C11.9893 17.5109 11.7078 17.7923 11.7078 18.1377C11.7078 18.4831 11.9893 18.7645 12.3347 18.7645H21.1101C21.4555 18.7645 21.7369 18.4831 21.7369 18.1377C21.7369 17.7923 21.4555 17.5109 21.1101 17.5109ZM14.8419 21.2718H21.1101C21.4563 21.2718 21.7369 21.5524 21.7369 21.8986C21.7369 22.2448 21.4563 22.5254 21.1101 22.5254H14.8419C14.4957 22.5254 14.2151 22.2448 14.2151 21.8986C14.2151 21.5524 14.4957 21.2718 14.8419 21.2718ZM9.8274 22.5254H12.3347C12.6809 22.5254 12.9615 22.2448 12.9615 21.8986C12.9615 21.5524 12.6809 21.2718 12.3347 21.2718H9.8274C9.48121 21.2718 9.20058 21.5524 9.20058 21.8986C9.20058 22.2448 9.48121 22.5254 9.8274 22.5254ZM9.95276 25.0326H16.0956C16.4417 25.0326 16.7224 25.3132 16.7224 25.6594C16.7224 26.0056 16.4417 26.2862 16.0956 26.2862H9.95276C9.60657 26.2862 9.32594 26.0056 9.32594 25.6594C9.32594 25.3132 9.60657 25.0326 9.95276 25.0326Z" fill="url(#paint0_linear_187_442)"/>
<defs>
<linearGradient id="paint0_linear_187_442" x1="7.44185" y1="3.72095" x2="30.4651" y2="34.1861" gradientUnits="userSpaceOnUse">
<stop stop-color="#0B27BA"/>
<stop offset="1" stop-color="#6C7AF6"/>
</linearGradient>
</defs>
</svg>
