<svg width="18" height="19" viewBox="0 0 18 19" fill="none" xmlns="http://www.w3.org/2000/svg">
<path d="M15.895 0.839844H1.23546C0.553101 0.839844 0 1.42102 0 2.13802V17.5417C0 18.2587 0.553101 18.8398 1.23546 18.8398H9.15073V11.8789H6.92578V9.1543H9.15073V7.14915C9.15073 4.8239 10.5017 3.55827 12.4757 3.55827C13.4212 3.55827 14.2337 3.63229 14.4705 3.66539V6.0957H13.1093C12.0353 6.0957 11.8274 6.63197 11.8274 7.41901V9.1543H14.3953L14.0607 11.8789H11.8274V18.8398H15.895C16.5773 18.8398 17.1304 18.2587 17.1304 17.5417V2.13802C17.1304 1.42102 16.5773 0.839844 15.895 0.839844V0.839844Z" fill="white"/>
</svg>
