<svg width="160" height="63" viewBox="0 0 160 63" fill="none" xmlns="http://www.w3.org/2000/svg">
<path d="M81.208 2.60941H85.16V11.8414H86.408V2.60941H90.184L90.328 1.44141H81.352L81.208 2.60941Z" fill="white"/>
<path d="M100.111 11.8414H101.359V1.44141H100.111V6.06541H93.6793V1.44141H92.4313V11.8414H93.6793V7.24941H100.111V11.8414Z" fill="white"/>
<path d="M104.856 11.8414H112.184L112.328 10.6734H106.104V7.21741H111.16L111.304 6.03341H106.104V2.60941H112.184L112.328 1.44141H104.856V11.8414Z" fill="white"/>
<path d="M88.088 34.4494H88.216L92.472 28.7534V35.8414H93.672V25.3454H93.576L88.168 32.6894L82.712 25.3454H82.6V35.8414H83.816V28.7534L88.088 34.4494Z" fill="white"/>
<path d="M101.87 35.9854C103.39 35.9854 104.75 35.3934 105.71 34.4174C106.686 33.4414 107.262 32.1134 107.262 30.6254C107.262 29.1534 106.686 27.8414 105.726 26.8814C104.75 25.9054 103.39 25.2974 101.87 25.2974C100.35 25.2974 98.9896 25.9054 98.0136 26.8814C97.0536 27.8414 96.4776 29.1694 96.4776 30.6414C96.4776 32.1294 97.0536 33.4414 98.0296 34.4174C98.9896 35.3934 100.35 35.9854 101.87 35.9854ZM101.87 34.8334C100.734 34.8334 99.7096 34.3694 98.9576 33.6174C98.2056 32.8654 97.7416 31.8094 97.7416 30.6254C97.7416 29.4574 98.2056 28.4174 98.9576 27.6814C99.6936 26.9294 100.718 26.4814 101.87 26.4814C103.022 26.4814 104.046 26.9294 104.782 27.6814C105.534 28.4174 105.998 29.4574 105.998 30.6254C105.998 31.8094 105.534 32.8654 104.782 33.6174C104.03 34.3694 103.006 34.8174 101.87 34.8334Z" fill="white"/>
<path d="M110.075 35.8414H111.323V30.7534L116.443 35.8414H118.155L113.547 31.3454C113.835 31.3934 114.011 31.3934 114.203 31.3934H115.051C116.939 31.3934 118.203 30.2894 118.203 28.4334C118.203 26.6734 116.939 25.4414 115.067 25.4414H110.075V35.8414ZM115.083 26.6094C116.203 26.6094 116.923 27.3454 116.923 28.4334C116.923 29.5054 116.203 30.3374 115.083 30.3374H111.323V26.6094H115.083Z" fill="white"/>
<path d="M129.879 25.4414H128.663V33.0734L121.159 25.3454H121.047V35.8414H122.247V28.2734L129.767 35.9374H129.879V25.4414Z" fill="white"/>
<path d="M133.378 35.8414H134.626V25.4414H133.378V35.8414Z" fill="white"/>
<path d="M146.963 25.4414H145.747V33.0734L138.243 25.3454H138.131V35.8414H139.331V28.2734L146.851 35.9374H146.963V25.4414Z" fill="white"/>
<path d="M157.727 35.5374C158.447 35.2334 159.071 34.7854 159.679 34.2254V30.3054H155.295V31.4734H158.431V33.7454C157.567 34.4174 156.543 34.8334 155.311 34.8334C154.143 34.8334 153.071 34.4174 152.287 33.6814C151.519 32.9294 151.007 31.8254 151.007 30.6254C151.007 29.4414 151.503 28.3534 152.271 27.6014C153.039 26.8814 154.063 26.4654 155.215 26.4654C156.559 26.4654 157.615 26.9934 158.639 28.1134L159.535 27.2014C158.479 26.0174 156.959 25.2974 155.215 25.2974C153.759 25.2974 152.447 25.8254 151.455 26.7534C150.415 27.6814 149.775 29.1214 149.775 30.6254C149.775 32.1454 150.415 33.5854 151.487 34.5454C152.479 35.4734 153.839 35.9854 155.311 35.9854C156.207 35.9854 156.991 35.8254 157.727 35.5374Z" fill="white"/>
<path d="M91.288 51.0254C90.328 49.9214 88.984 49.2974 87.272 49.2974C85.832 49.2974 84.536 49.8094 83.56 50.7374C82.52 51.6654 81.912 53.1534 81.912 54.6574C81.912 56.1774 82.488 57.6334 83.528 58.5614C84.504 59.4734 85.832 59.9854 87.272 59.9854C88.872 59.9854 90.312 59.4094 91.352 58.1614L90.488 57.3454C89.624 58.3054 88.536 58.8014 87.272 58.8014C86.168 58.8014 85.128 58.3854 84.36 57.6654C83.624 56.9294 83.176 55.8094 83.176 54.6254C83.176 53.4574 83.656 52.3534 84.392 51.6174C85.16 50.8974 86.168 50.4654 87.272 50.4654C88.52 50.4654 89.64 51.0254 90.408 51.9054L91.288 51.0254Z" fill="white"/>
<path d="M98.2446 59.9854C99.7646 59.9854 101.125 59.3934 102.085 58.4174C103.061 57.4414 103.637 56.1134 103.637 54.6254C103.637 53.1534 103.061 51.8414 102.101 50.8814C101.125 49.9054 99.7646 49.2974 98.2446 49.2974C96.7246 49.2974 95.3646 49.9054 94.3886 50.8814C93.4286 51.8414 92.8526 53.1694 92.8526 54.6414C92.8526 56.1294 93.4286 57.4414 94.4046 58.4174C95.3646 59.3934 96.7246 59.9854 98.2446 59.9854ZM98.2446 58.8334C97.1086 58.8334 96.0846 58.3694 95.3326 57.6174C94.5806 56.8654 94.1166 55.8094 94.1166 54.6254C94.1166 53.4574 94.5806 52.4174 95.3326 51.6814C96.0686 50.9294 97.0926 50.4814 98.2446 50.4814C99.3966 50.4814 100.421 50.9294 101.157 51.6814C101.909 52.4174 102.373 53.4574 102.373 54.6254C102.373 55.8094 101.909 56.8654 101.157 57.6174C100.405 58.3694 99.3806 58.8174 98.2446 58.8334Z" fill="white"/>
<path d="M115.282 49.4414H114.066V57.0734L106.562 49.3454H106.45V59.8414H107.65V52.2734L115.17 59.9374H115.282V49.4414Z" fill="white"/>
<path d="M117.389 50.6094H121.341V59.8414H122.589V50.6094H126.365L126.509 49.4414H117.533L117.389 50.6094Z" fill="white"/>
<path d="M128.613 59.8414H135.941L136.085 58.6734H129.861V55.2174H134.917L135.061 54.0334H129.861V50.6094H135.941L136.085 49.4414H128.613V59.8414Z" fill="white"/>
<path d="M145.796 59.8414H147.3L143.156 54.5134L147.124 49.4414H145.7L142.404 53.6494L139.22 49.4414H137.716L141.636 54.5934L137.556 59.8414H138.996L142.404 55.4734L145.796 59.8414Z" fill="white"/>
<path d="M148.18 50.6094H152.132V59.8414H153.38V50.6094H157.156L157.3 49.4414H148.324L148.18 50.6094Z" fill="white"/>
<path d="M31 62.8398C13.8792 62.8398 -2.10343e-06 48.9607 -1.35505e-06 31.8398C-6.06677e-07 14.719 13.8792 0.839842 31 0.839842C48.1208 0.839843 62 14.719 62 31.8398C62 48.9607 48.1208 62.8398 31 62.8398Z" fill="url(#paint0_linear_187_22)"/>
<defs>
<linearGradient id="paint0_linear_187_22" x1="-7.19889e-07" y1="31.8398" x2="62" y2="31.8398" gradientUnits="userSpaceOnUse">
<stop stop-color="#55C79A"/>
<stop offset="0.520833" stop-color="#907CFF"/>
<stop offset="1" stop-color="#FC876D"/>
</linearGradient>
</defs>
</svg>
