<svg width="40" height="40" viewBox="0 0 40 40" fill="none" xmlns="http://www.w3.org/2000/svg">
<path fill-rule="evenodd" clip-rule="evenodd" d="M38.8338 4.90503H1.83273V8.06366H2.50948V25.8865V33.1062L3.41195 34.0086H10.1804C7.24742 34.0086 5.66811 32.2037 5.66811 29.2707V8.06366H38.8338V4.90503Z" fill="#EDEAFF"/>
<path fill-rule="evenodd" clip-rule="evenodd" d="M38.4209 4.45453H1.86724C1.35066 4.45453 0.930237 4.87565 0.930237 5.39309V7.75534C0.930237 8.27278 1.35066 8.69389 1.86724 8.69389H2.02526V32.6512C2.02526 33.7357 2.90598 34.6179 3.9884 34.6179H7.64289C10.355 34.6554 12.9254 34.6748 15.3847 34.6827V34.6814C16.0898 34.6814 16.0898 33.4934 15.3847 33.4934V33.4914H3.9884C3.52605 33.4914 3.14961 33.1146 3.14961 32.6512V8.69389H37.1383V32.6512C37.1383 33.1146 36.7621 33.4914 36.2998 33.4914H17.8526V34.687C21.3838 34.6883 24.6946 34.6691 27.8839 34.6506L27.8852 34.6506C30.7648 34.634 33.5454 34.6179 36.2998 34.6179C37.3822 34.6179 38.2629 33.7357 38.2629 32.6512V8.69389H38.4209C38.9375 8.69389 39.3579 8.27278 39.3579 7.75534V5.39309C39.3579 4.87565 38.9375 4.45453 38.4209 4.45453ZM38.2336 7.56739H2.05458V5.58103H38.2336V7.56739Z" fill="url(#paint0_linear_187_413)"/>
<path d="M17.8525 34.682C17.1475 34.682 17.1475 33.494 17.8525 33.494V34.682Z" fill="url(#paint1_linear_187_413)"/>
<path d="M14.4778 12.2106H5.71554C5.409 12.2106 5.16087 11.9738 5.16087 11.6818C5.16087 11.3898 5.409 11.1529 5.71554 11.1529H14.4778C14.7841 11.1529 15.0322 11.3898 15.0322 11.6818C15.0322 11.9738 14.7841 12.2106 14.4778 12.2106Z" fill="url(#paint2_linear_187_413)"/>
<path d="M25.9603 29.1328C25.985 29.1328 26.01 29.1328 26.0347 29.1325C30.6222 29.0937 34.385 25.3294 34.422 20.7419C34.4264 20.2039 34.38 19.6646 34.2838 19.1392C34.2309 18.8511 34.0674 18.603 33.8228 18.4404C33.5811 18.2798 33.2798 18.2237 32.9966 18.2863L26.8 19.6544L30.1379 14.6467C30.3091 14.39 30.3617 14.0713 30.2823 13.7729C30.2032 13.4771 30.0015 13.2295 29.7284 13.0934C28.5144 12.4889 27.1499 12.1846 25.7836 12.2123C25.4908 12.2181 25.1956 12.2396 24.906 12.2761C24.597 12.3149 24.3779 12.5968 24.4167 12.9058C24.4555 13.2148 24.7375 13.4339 25.0462 13.3948C25.2973 13.3633 25.5531 13.3448 25.8065 13.3398C26.9849 13.3148 28.1157 13.5621 29.1651 14.0731L25.7865 19.1416C25.5422 19.5079 25.5452 19.9795 25.7936 20.3429C26.0423 20.706 26.4807 20.8798 26.9109 20.7848L33.1848 19.3994C33.261 19.8369 33.298 20.285 33.2942 20.7325C33.2621 24.7088 30.0012 27.9712 26.025 28.005C26.0143 28.005 26.0035 28.005 25.9928 28.0051C25.9821 28.0052 25.9713 28.0053 25.9606 28.0053C24.0016 28.0053 22.1622 27.2438 20.7757 25.8572C19.3738 24.4553 18.6111 22.591 18.6279 20.6076C18.6394 19.2333 19.0392 17.8932 19.7837 16.7327C20.5099 15.6005 21.5286 14.6879 22.7291 14.0931C23.0084 13.9549 23.1225 13.6165 22.9843 13.3374C22.8461 13.0584 22.5077 12.9443 22.2287 13.0825C20.8448 13.7682 19.6711 14.8196 18.8346 16.1238C17.9752 17.4637 17.5136 19.0108 17.5003 20.5981C17.4806 22.8862 18.3606 25.0372 19.9783 26.6546C21.578 28.2546 23.6999 29.1331 25.9603 29.1328Z" fill="url(#paint3_linear_187_413)"/>
<path fill-rule="evenodd" clip-rule="evenodd" d="M30.0219 17.4036C30.2179 17.6891 30.534 17.8514 30.8682 17.8514C30.9473 17.8514 31.0278 17.8423 31.1077 17.8234L35.0372 16.8984C35.3241 16.8308 35.5688 16.6431 35.7089 16.3833C35.8487 16.1238 35.871 15.8165 35.7702 15.5403C35.3626 14.4233 34.6369 13.4624 33.6714 12.761C33.4432 12.595 33.1641 12.5303 32.8864 12.5789C32.6093 12.627 32.3695 12.7819 32.2113 13.0146L30.0194 16.2385C29.7781 16.5931 29.7793 17.0502 30.0219 17.4036ZM33.0768 13.669C33.8302 14.2285 34.4008 14.9828 34.7318 15.8563L30.9908 16.7369L33.0768 13.669Z" fill="url(#paint4_linear_187_413)"/>
<path d="M5.70777 18.2048H12.3702C12.6722 18.2048 12.9168 17.9681 12.9168 17.6758C12.9168 17.3837 12.6722 17.1471 12.3702 17.1471H5.70777C5.40548 17.1471 5.1608 17.3837 5.1608 17.6758C5.1608 17.9681 5.40548 18.2048 5.70777 18.2048Z" fill="url(#paint5_linear_187_413)"/>
<path d="M10.9451 15.031H5.72254C5.41213 15.031 5.16087 14.7942 5.16087 14.5022C5.16087 14.2102 5.41213 13.9734 5.72254 13.9734H10.9451C11.2552 13.9734 11.5067 14.2102 11.5067 14.5022C11.5067 14.7942 11.2552 15.031 10.9451 15.031Z" fill="url(#paint6_linear_187_413)"/>
<path d="M5.71554 23.4921H14.4778C14.7841 23.4921 15.0322 23.2552 15.0322 22.9632C15.0322 22.6713 14.7841 22.4344 14.4778 22.4344H5.71554C5.409 22.4344 5.16087 22.6713 5.16087 22.9632C5.16087 23.2552 5.409 23.4921 5.71554 23.4921Z" fill="url(#paint7_linear_187_413)"/>
<path d="M12.3702 29.838H5.70785C5.40555 29.838 5.16087 29.6011 5.16087 29.3091C5.16087 29.0171 5.40555 28.7803 5.70785 28.7803H12.3702C12.6722 28.7803 12.9169 29.0171 12.9169 29.3091C12.9169 29.6011 12.6722 29.838 12.3702 29.838Z" fill="url(#paint8_linear_187_413)"/>
<path d="M5.72247 26.6659H10.945C11.2551 26.6659 11.5067 26.429 11.5067 26.1371C11.5067 25.8451 11.2551 25.6082 10.945 25.6082H5.72247C5.41205 25.6082 5.1608 25.8451 5.1608 26.1371C5.1608 26.429 5.41205 26.6659 5.72247 26.6659Z" fill="url(#paint9_linear_187_413)"/>
<defs>
<linearGradient id="paint0_linear_187_413" x1="1.60709" y1="4.45453" x2="38.6081" y2="34.0102" gradientUnits="userSpaceOnUse">
<stop stop-color="#0B27BA"/>
<stop offset="1" stop-color="#6C7AF6"/>
</linearGradient>
<linearGradient id="paint1_linear_187_413" x1="1.60709" y1="4.45453" x2="38.6081" y2="34.0102" gradientUnits="userSpaceOnUse">
<stop stop-color="#0B27BA"/>
<stop offset="1" stop-color="#6C7AF6"/>
</linearGradient>
<linearGradient id="paint2_linear_187_413" x1="1.60709" y1="4.45453" x2="38.6081" y2="34.0102" gradientUnits="userSpaceOnUse">
<stop stop-color="#0B27BA"/>
<stop offset="1" stop-color="#6C7AF6"/>
</linearGradient>
<linearGradient id="paint3_linear_187_413" x1="1.60709" y1="4.45453" x2="38.6081" y2="34.0102" gradientUnits="userSpaceOnUse">
<stop stop-color="#0B27BA"/>
<stop offset="1" stop-color="#6C7AF6"/>
</linearGradient>
<linearGradient id="paint4_linear_187_413" x1="1.60709" y1="4.45453" x2="38.6081" y2="34.0102" gradientUnits="userSpaceOnUse">
<stop stop-color="#0B27BA"/>
<stop offset="1" stop-color="#6C7AF6"/>
</linearGradient>
<linearGradient id="paint5_linear_187_413" x1="1.60709" y1="4.45453" x2="38.6081" y2="34.0102" gradientUnits="userSpaceOnUse">
<stop stop-color="#0B27BA"/>
<stop offset="1" stop-color="#6C7AF6"/>
</linearGradient>
<linearGradient id="paint6_linear_187_413" x1="1.60709" y1="4.45453" x2="38.6081" y2="34.0102" gradientUnits="userSpaceOnUse">
<stop stop-color="#0B27BA"/>
<stop offset="1" stop-color="#6C7AF6"/>
</linearGradient>
<linearGradient id="paint7_linear_187_413" x1="1.60709" y1="4.45453" x2="38.6081" y2="34.0102" gradientUnits="userSpaceOnUse">
<stop stop-color="#0B27BA"/>
<stop offset="1" stop-color="#6C7AF6"/>
</linearGradient>
<linearGradient id="paint8_linear_187_413" x1="1.60709" y1="4.45453" x2="38.6081" y2="34.0102" gradientUnits="userSpaceOnUse">
<stop stop-color="#0B27BA"/>
<stop offset="1" stop-color="#6C7AF6"/>
</linearGradient>
<linearGradient id="paint9_linear_187_413" x1="1.60709" y1="4.45453" x2="38.6081" y2="34.0102" gradientUnits="userSpaceOnUse">
<stop stop-color="#0B27BA"/>
<stop offset="1" stop-color="#6C7AF6"/>
</linearGradient>
</defs>
</svg>
