<svg width="19" height="19" viewBox="0 0 19 19" fill="none" xmlns="http://www.w3.org/2000/svg">
<path d="M9.1473 6.83846C7.49471 6.83846 6.14608 8.18709 6.14608 9.83968C6.14608 11.4923 7.49471 12.8409 9.1473 12.8409C10.7999 12.8409 12.1485 11.4923 12.1485 9.83968C12.1485 8.18709 10.7999 6.83846 9.1473 6.83846ZM18.1487 9.83968C18.1487 8.59686 18.16 7.3653 18.0902 6.12474C18.0204 4.68379 17.6917 3.40495 16.638 2.35126C15.582 1.29531 14.3054 0.968848 12.8645 0.899052C11.6217 0.829256 10.3901 0.840513 9.14955 0.840513C7.90673 0.840513 6.67518 0.829256 5.43461 0.899052C3.99366 0.968848 2.71482 1.29756 1.66113 2.35126C0.605188 3.4072 0.278723 4.68379 0.208927 6.12474C0.139131 7.36755 0.150389 8.59911 0.150389 9.83968C0.150389 11.0802 0.139131 12.3141 0.208927 13.5546C0.278723 14.9956 0.607439 16.2744 1.66113 17.3281C2.71708 18.384 3.99366 18.7105 5.43461 18.7803C6.67743 18.8501 7.90899 18.8388 9.14955 18.8388C10.3924 18.8388 11.6239 18.8501 12.8645 18.7803C14.3054 18.7105 15.5843 18.3818 16.638 17.3281C17.6939 16.2722 18.0204 14.9956 18.0902 13.5546C18.1622 12.3141 18.1487 11.0825 18.1487 9.83968ZM9.1473 14.4575C6.59187 14.4575 4.52952 12.3951 4.52952 9.83968C4.52952 7.28425 6.59187 5.22189 9.1473 5.22189C11.7027 5.22189 13.7651 7.28425 13.7651 9.83968C13.7651 12.3951 11.7027 14.4575 9.1473 14.4575ZM13.9542 6.11123C13.3576 6.11123 12.8758 5.62941 12.8758 5.03277C12.8758 4.43613 13.3576 3.95431 13.9542 3.95431C14.5509 3.95431 15.0327 4.43613 15.0327 5.03277C15.0328 5.17444 15.0051 5.31476 14.9509 5.44569C14.8968 5.57661 14.8174 5.69557 14.7172 5.79575C14.617 5.89593 14.4981 5.97536 14.3671 6.0295C14.2362 6.08363 14.0959 6.1114 13.9542 6.11123Z" fill="white"/>
</svg>
