<svg width="18" height="19" viewBox="0 0 18 19" fill="none" xmlns="http://www.w3.org/2000/svg">
<path d="M17.1454 18.8396V18.8388H17.1497V12.2373C17.1497 9.00778 16.4881 6.52002 12.8949 6.52002C11.1676 6.52002 10.0084 7.51602 9.5352 8.46028H9.48523V6.82152H6.0784V18.8388H9.62585V12.8883C9.62585 11.3215 9.9085 9.80653 11.755 9.80653C13.5744 9.80653 13.6016 11.5945 13.6016 12.9888V18.8396H17.1454Z" fill="white"/>
<path d="M0.301758 6.82275H3.85345V18.8401H0.301758V6.82275Z" fill="white"/>
<path d="M2.0764 0.839844C0.940794 0.839844 0.0193176 1.8081 0.0193176 3.00135C0.0193176 4.1946 0.940794 5.18311 2.0764 5.18311C3.21201 5.18311 4.13348 4.1946 4.13348 3.00135C4.13277 1.8081 3.21129 0.839844 2.0764 0.839844V0.839844Z" fill="white"/>
</svg>
