<svg width="36" height="37" viewBox="0 0 36 37" fill="none" xmlns="http://www.w3.org/2000/svg">
<circle cx="18" cy="18.8125" r="12" fill="#F3F5FF" stroke="#907CFF"/>
<path d="M16.168 20.0045H13.704V22.4685H12.28V20.0045H9.832V18.6125H12.28V16.1325H13.704V18.6125H16.168V20.0045ZM24.824 22.4205L24.616 23.8125H17.256L17.24 23.6845L21.304 20.4525C21.8693 20.0045 22.2747 19.5992 22.52 19.2365C22.776 18.8632 22.904 18.4578 22.904 18.0205C22.904 17.5298 22.728 17.1352 22.376 16.8365C22.0347 16.5378 21.5707 16.3885 20.984 16.3885C19.9813 16.3885 19.2773 16.9538 18.872 18.0845L17.464 17.6685C17.7413 16.7938 18.1893 16.1325 18.808 15.6845C19.4373 15.2258 20.1733 14.9965 21.016 14.9965C22.0613 14.9965 22.8933 15.2792 23.512 15.8445C24.1413 16.4098 24.456 17.1138 24.456 17.9565C24.456 18.5965 24.2533 19.1832 23.848 19.7165C23.4533 20.2392 22.8613 20.7938 22.072 21.3805L20.68 22.4365L24.824 22.4205Z" fill="#907CFF"/>
</svg>
