<svg width="40" height="40" viewBox="0 0 40 40" fill="none" xmlns="http://www.w3.org/2000/svg">
<g clip-path="url(#clip0_215_321)">
<path d="M19.9998 0C19.5598 0 19.1248 0.015 18.6923 0.0425L18.8523 2.5375C19.6165 2.48811 20.3831 2.48811 21.1473 2.5375L21.3073 0.0425C20.872 0.0142781 20.436 0.00010403 19.9998 0V0ZM16.0998 0.38C15.2348 0.5525 14.3898 0.78 13.5698 1.055L14.3723 3.425C15.0898 3.18 15.8273 2.9825 16.5823 2.8325L16.0998 0.3825V0.38ZM26.4298 1.0575C25.6031 0.777209 24.7587 0.55172 23.9023 0.3825L23.4173 2.8325C24.1723 2.9825 24.9098 3.1825 25.6273 3.425L26.4298 1.0575ZM31.1123 3.37C30.3867 2.88436 29.6301 2.44676 28.8473 2.06L27.7398 4.3C28.4273 4.64 29.0898 5.025 29.7223 5.4475L31.1123 3.37ZM11.1498 2.06C10.3648 2.4475 9.60981 2.885 8.88731 3.37L10.2773 5.445C10.9127 5.02089 11.5749 4.63842 12.2598 4.3L11.1498 2.06ZM6.81231 4.9625C6.15731 5.5375 5.53731 6.1575 4.96231 6.8125L6.84231 8.4625C7.34731 7.8875 7.88731 7.3475 8.46231 6.8425L6.81231 4.9625ZM35.0373 6.8125C34.4614 6.1564 33.8434 5.53843 33.1873 4.9625L31.5373 6.8425C32.1123 7.3475 32.6548 7.8875 33.1573 8.4625L35.0373 6.8125ZM37.9398 11.15C37.5531 10.368 37.1155 9.61221 36.6298 8.8875L34.5548 10.2775C34.9773 10.91 35.3598 11.5725 35.6998 12.26L37.9398 11.1525V11.15ZM3.36981 8.8875C2.88481 9.61 2.44481 10.365 2.05981 11.1525L4.29981 12.26C4.63981 11.5725 5.02481 10.91 5.44731 10.2775L3.36981 8.8875ZM1.05731 13.57C0.777011 14.3968 0.551522 15.2411 0.38231 16.0975L2.83231 16.5825C2.98231 15.8275 3.18231 15.09 3.42481 14.3725L1.05731 13.57ZM39.6198 16.1C39.4507 15.2427 39.2252 14.3976 38.9448 13.57L36.5748 14.3725C36.8198 15.09 37.0173 15.8275 37.1673 16.5825L39.6173 16.0975L39.6198 16.1ZM0.0423096 18.6925C-0.0139404 19.5633 -0.0139404 20.4367 0.0423096 21.3075L2.53731 21.1475C2.48792 20.3833 2.48792 19.6167 2.53731 18.8525L0.0423096 18.6925ZM39.9998 20C39.9997 19.5638 39.9856 19.1278 39.9573 18.6925L37.4623 18.8525C37.5117 19.6167 37.5117 20.3833 37.4623 21.1475L39.9573 21.3075C39.9856 20.8722 39.9997 20.4362 39.9998 20ZM0.37981 23.9C0.55231 24.765 0.77981 25.61 1.05481 26.43L3.42481 25.6275C3.17893 24.9047 2.981 24.1664 2.83231 23.4175L0.38231 23.9025L0.37981 23.9ZM38.9423 26.43C39.2223 25.61 39.4473 24.765 39.6173 23.9025L37.1673 23.4175C37.0173 24.1725 36.8173 24.91 36.5748 25.6275L38.9423 26.43ZM2.05981 28.85C2.44666 29.6319 2.88427 30.3877 3.36981 31.1125L5.44481 29.7225C5.02027 29.0874 4.63779 28.4251 4.29981 27.74L2.05981 28.8475V28.85ZM36.6298 31.1125C37.1148 30.39 37.5548 29.635 37.9398 28.8475L35.6998 27.74C35.3598 28.4275 34.9748 29.09 34.5523 29.7225L36.6298 31.1125ZM4.96231 33.1875C5.53731 33.8425 6.15731 34.4625 6.81231 35.0375L8.46231 33.1575C7.88773 32.6532 7.34659 32.1121 6.84231 31.5375L4.96231 33.1875ZM33.1873 35.0375C33.8423 34.4625 34.4623 33.8425 35.0373 33.1875L33.1573 31.5375C32.6548 32.1125 32.1123 32.655 31.5373 33.1575L33.1873 35.0375ZM28.8498 37.94C29.6348 37.5525 30.3898 37.115 31.1123 36.63L29.7223 34.555C29.0869 34.9791 28.4247 35.3616 27.7398 35.7L28.8473 37.94H28.8498ZM8.88731 36.63C9.60981 37.115 10.3648 37.555 11.1523 37.94L12.2598 35.7C11.5746 35.3612 10.9124 34.9779 10.2773 34.5525L8.88731 36.63ZM13.5698 38.9425C14.3898 39.2225 15.2348 39.4475 16.0973 39.6175L16.5823 37.1675C15.8334 37.0187 15.0952 36.8208 14.3723 36.575L13.5698 38.9425ZM23.8998 39.62C24.7571 39.4509 25.6022 39.2254 26.4298 38.945L25.6273 36.575C24.9045 36.8208 24.1662 37.0187 23.4173 37.1675L23.9023 39.6175L23.8998 39.62ZM18.6923 39.9575C19.5631 40.0138 20.4366 40.0138 21.3073 39.9575L21.1473 37.4625C20.3831 37.5119 19.6165 37.5119 18.8523 37.4625L18.6923 39.9575ZM21.2498 11.25C21.2498 10.9185 21.1181 10.6005 20.8837 10.3661C20.6493 10.1317 20.3313 10 19.9998 10C19.6683 10 19.3503 10.1317 19.1159 10.3661C18.8815 10.6005 18.7498 10.9185 18.7498 11.25V18.75H11.2498C10.9183 18.75 10.6003 18.8817 10.3659 19.1161C10.1315 19.3505 9.99981 19.6685 9.99981 20C9.99981 20.3315 10.1315 20.6495 10.3659 20.8839C10.6003 21.1183 10.9183 21.25 11.2498 21.25H18.7498V28.75C18.7498 29.0815 18.8815 29.3995 19.1159 29.6339C19.3503 29.8683 19.6683 30 19.9998 30C20.3313 30 20.6493 29.8683 20.8837 29.6339C21.1181 29.3995 21.2498 29.0815 21.2498 28.75V21.25H28.7498C29.0813 21.25 29.3993 21.1183 29.6337 20.8839C29.8681 20.6495 29.9998 20.3315 29.9998 20C29.9998 19.6685 29.8681 19.3505 29.6337 19.1161C29.3993 18.8817 29.0813 18.75 28.7498 18.75H21.2498V11.25Z" fill="#907CFF"/>
</g>
<defs>
<clipPath id="clip0_215_321">
<rect width="40" height="40" fill="white"/>
</clipPath>
</defs>
</svg>
