<svg width="256" height="240" viewBox="0 0 256 240" fill="none" xmlns="http://www.w3.org/2000/svg">
<rect width="240" height="240" rx="120" fill="white"/>
<path d="M2.68918 110.916H10.9664V130.252H13.5802V110.916H21.4888L21.7904 108.47H2.99078L2.68918 110.916ZM27.7789 121.64C27.7789 119.964 28.382 118.758 29.4208 117.819C30.3256 117.015 31.465 116.647 32.6713 116.647C33.8107 116.647 35.0171 117.015 35.8549 117.887C36.7262 118.825 37.1953 119.998 37.1953 121.606V130.252H39.7421V121.104C39.7421 119.059 39.1054 117.317 37.8655 116.043C36.7597 114.904 34.9501 114.2 33.0735 114.2C31.0293 114.2 28.9851 115.105 27.7789 117.049V106.794H25.2321V130.252H27.7789V121.64ZM46.5372 110.816C47.509 110.816 48.2797 110.045 48.2797 109.073C48.2797 108.101 47.509 107.331 46.5372 107.331C45.5653 107.331 44.7946 108.101 44.7946 109.073C44.7946 110.045 45.5653 110.816 46.5372 110.816ZM47.8106 130.252V114.502H45.2637V130.252H47.8106ZM56.2253 121.64C56.2253 119.964 56.8285 118.758 57.8673 117.819C58.7721 117.015 59.9115 116.647 61.1179 116.647C62.2572 116.647 63.4636 117.015 64.3014 117.887C65.1727 118.825 65.6418 119.998 65.6418 121.606V130.252H68.1887V121.104C68.1887 119.059 67.552 117.317 66.3121 116.043C65.2062 114.904 63.3966 114.2 61.52 114.2C59.4088 114.2 57.3311 115.206 56.1248 117.317V114.502H53.6785V130.252H56.2253V121.64ZM86.6455 134.977C88.2205 133.536 89.0918 131.358 89.0918 128.711V114.502H86.612V116.982C85.4056 115.139 83.2944 114.2 80.7141 114.2C78.6364 114.2 76.6927 115.005 75.2183 116.312C73.6432 117.685 72.6714 119.83 72.6714 122.008C72.6714 124.254 73.5762 126.465 75.1848 127.873C76.6592 129.18 78.6029 129.917 80.6805 129.917C83.2274 129.917 85.2715 128.744 86.5449 126.934V128.912C86.5449 132.564 84.2662 134.742 80.8146 134.742C78.3683 134.742 76.3911 133.771 75.1512 131.861L73.2411 133.369C74.5816 135.714 77.3965 137.122 80.7476 137.122C83.0598 137.122 85.1375 136.385 86.6455 134.977ZM80.8816 127.538C79.3401 127.538 77.9662 126.968 76.9273 126.03C75.855 125.024 75.2518 123.55 75.2518 122.008C75.2518 120.467 75.8885 119.026 76.9273 118.054C77.9662 117.116 79.3736 116.546 80.9151 116.546C82.4566 116.546 83.8976 117.116 84.9364 118.054C86.0088 119.059 86.679 120.467 86.679 122.008C86.679 123.55 86.0088 124.991 84.9364 125.996C83.8976 126.934 82.4231 127.538 80.8816 127.538ZM99.175 120.902C97.466 120.668 96.5947 119.964 96.5947 118.892C96.5947 117.417 98.2032 116.446 100.281 116.446C102.124 116.446 103.498 117.049 105.073 118.155L106.413 116.144C104.771 114.971 102.727 114.2 100.314 114.2C96.5612 114.2 94.0144 116.278 94.0144 118.992C94.0144 121.204 95.7569 122.846 98.7059 123.248L101.487 123.617C103.096 123.818 104.101 124.555 104.101 125.728C104.101 127.136 102.694 128.308 100.381 128.308C98.2032 128.308 96.7623 127.672 94.9862 126.365L93.6793 128.442C95.6564 129.816 97.9016 130.587 100.515 130.554C104.202 130.52 106.681 128.442 106.681 125.695C106.681 123.382 105.006 121.707 102.057 121.305L99.175 120.902ZM138.367 111.788C136.357 109.475 133.542 108.168 129.956 108.168C126.94 108.168 124.226 109.241 122.182 111.184C120.003 113.128 118.73 116.244 118.73 119.395C118.73 122.578 119.936 125.628 122.115 127.571C124.159 129.481 126.94 130.554 129.956 130.554C133.307 130.554 136.323 129.347 138.501 126.733L136.692 125.024C134.882 127.035 132.604 128.074 129.956 128.074C127.644 128.074 125.466 127.203 123.857 125.695C122.316 124.153 121.377 121.807 121.377 119.327C121.377 116.881 122.383 114.569 123.924 113.027C125.533 111.519 127.644 110.615 129.956 110.615C132.57 110.615 134.916 111.788 136.524 113.631L138.367 111.788ZM145.324 121.64C145.324 119.964 145.927 118.758 146.966 117.819C147.87 117.015 149.01 116.647 150.216 116.647C151.356 116.647 152.562 117.015 153.4 117.887C154.271 118.825 154.74 119.998 154.74 121.606V130.252H157.287V121.104C157.287 119.059 156.65 117.317 155.41 116.043C154.305 114.904 152.495 114.2 150.618 114.2C148.574 114.2 146.53 115.105 145.324 117.049V106.794H142.777V130.252H145.324V121.64ZM173.666 130.252H175.978V120.802C175.978 118.858 175.208 117.116 174.035 116.043C172.661 114.804 170.784 114.2 168.908 114.2C166.394 114.2 164.049 115.105 162.44 116.613L163.848 118.389C165.221 117.116 167.199 116.479 168.941 116.479C170.315 116.479 171.32 116.848 172.259 117.752C173.096 118.557 173.499 119.897 173.499 121.673V122.142C171.723 121.305 169.678 120.735 168.003 120.735C164.35 120.735 161.535 122.478 161.535 125.728C161.535 128.878 164.183 130.554 167.534 130.554C169.645 130.554 171.823 129.615 173.666 128.074V130.252ZM164.183 125.695C164.183 123.952 165.657 122.913 167.902 122.913C169.712 122.913 171.354 123.282 173.499 124.254V126.03C171.723 127.571 169.578 128.342 167.735 128.342C165.59 128.342 164.183 127.303 164.183 125.695ZM184.111 121.64C184.111 119.964 184.714 118.758 185.753 117.819C186.658 117.015 187.797 116.647 189.004 116.647C190.143 116.647 191.349 117.015 192.187 117.887C193.059 118.825 193.528 119.998 193.528 121.606V130.252H196.074V121.104C196.074 119.059 195.438 117.317 194.198 116.043C193.092 114.904 191.282 114.2 189.406 114.2C187.295 114.2 185.217 115.206 184.011 117.317V114.502H181.564V130.252H184.111V121.64ZM214.531 134.977C216.106 133.536 216.978 131.358 216.978 128.711V114.502H214.498V116.982C213.291 115.139 211.18 114.2 208.6 114.2C206.522 114.2 204.579 115.005 203.104 116.312C201.529 117.685 200.557 119.83 200.557 122.008C200.557 124.254 201.462 126.465 203.071 127.873C204.545 129.18 206.489 129.917 208.566 129.917C211.113 129.917 213.157 128.744 214.431 126.934V128.912C214.431 132.564 212.152 134.742 208.7 134.742C206.254 134.742 204.277 133.771 203.037 131.861L201.127 133.369C202.467 135.714 205.282 137.122 208.633 137.122C210.946 137.122 213.023 136.385 214.531 134.977ZM208.767 127.538C207.226 127.538 205.852 126.968 204.813 126.03C203.741 125.024 203.138 123.55 203.138 122.008C203.138 120.467 203.774 119.026 204.813 118.054C205.852 117.116 207.259 116.546 208.801 116.546C210.342 116.546 211.783 117.116 212.822 118.054C213.895 119.059 214.565 120.467 214.565 122.008C214.565 123.55 213.895 124.991 212.822 125.996C211.783 126.934 210.309 127.538 208.767 127.538ZM237.181 127.37L235.506 125.661C234.098 127.203 232.59 128.174 230.244 128.174C228.703 128.174 227.195 127.605 226.156 126.633C225.251 125.762 224.648 124.689 224.481 123.248H237.952V122.042C237.952 119.797 237.047 117.652 235.573 116.312C234.065 114.904 232.087 114.2 229.976 114.2C227.832 114.2 225.854 115.005 224.346 116.412C222.771 117.853 221.833 120.065 221.833 122.377C221.833 124.689 222.805 126.901 224.413 128.375C225.921 129.783 228.066 130.554 230.244 130.554C233.059 130.554 235.64 129.381 237.181 127.37ZM226.056 118.088C227.094 117.116 228.468 116.58 229.976 116.58C231.652 116.58 232.858 117.082 233.83 117.987C234.634 118.758 235.137 119.696 235.338 121.037H224.548C224.782 119.864 225.285 118.825 226.056 118.088Z" fill="#051462"/>
<path fill-rule="evenodd" clip-rule="evenodd" d="M121.323 97.0944H71.0566V95H121.323V97.0944Z" fill="#051462"/>
<path fill-rule="evenodd" clip-rule="evenodd" d="M171.762 145.292H121.784L121.759 143.197H171.737L171.762 145.292Z" fill="#051462"/>
<path d="M155 16H256V30V44H155V16Z" fill="#0077C8"/>
<path d="M161.709 24.8H166.413C168.023 24.8 169.223 25.0347 170.013 25.504C170.802 25.9627 171.197 26.7893 171.197 27.984C171.197 29.3067 170.717 30.2187 169.757 30.72C168.861 31.1787 167.607 31.408 165.997 31.408H165.869V35.696H167.869V36H161.709V35.696H162.749V25.104H161.709V24.8ZM165.869 25.104V31.104H166.205C166.845 31.104 167.287 30.8853 167.533 30.448C167.778 30.0107 167.901 29.3013 167.901 28.32V27.552C167.901 26.6453 167.783 26.0107 167.549 25.648C167.325 25.2853 166.909 25.104 166.301 25.104H165.869ZM178.857 30.336H178.009V35.696H179.049V36H173.849V35.696H174.889V25.104H173.849V24.8H178.681C180.068 24.8 181.049 24.8747 181.625 25.024C182.212 25.1627 182.623 25.3333 182.857 25.536C183.369 25.952 183.625 26.6133 183.625 27.52C183.625 28.4267 183.401 29.0773 182.953 29.472C182.505 29.856 181.823 30.0853 180.905 30.16V30.208C181.769 30.3253 182.372 30.5813 182.713 30.976C183.055 31.3707 183.225 32.032 183.225 32.96V33.808C183.225 34.3627 183.252 34.736 183.305 34.928C183.369 35.12 183.497 35.216 183.689 35.216C183.881 35.216 184.031 35.1307 184.137 34.96C184.255 34.7787 184.361 34.4053 184.457 33.84L184.729 33.872C184.612 34.7787 184.404 35.3867 184.105 35.696C183.817 36.0053 183.236 36.16 182.361 36.16C181.487 36.16 180.863 35.9573 180.489 35.552C180.127 35.136 179.945 34.3627 179.945 33.232V32.064C179.945 31.4667 179.865 31.0293 179.705 30.752C179.556 30.4747 179.273 30.336 178.857 30.336ZM178.009 25.104V30.032H178.521C179.129 30.032 179.577 29.8453 179.865 29.472C180.164 29.0987 180.313 28.4907 180.313 27.648V27.184C180.313 26.3413 180.169 25.7867 179.881 25.52C179.604 25.2427 179.156 25.104 178.537 25.104H178.009ZM187.399 24.8H195.719L195.878 27.968H195.591C195.143 26.8907 194.673 26.1547 194.183 25.76C193.692 25.3547 192.972 25.152 192.023 25.152H191.463V30.096H192.007C192.508 30.096 192.929 29.9093 193.271 29.536C193.612 29.152 193.852 28.64 193.991 28H194.231V32.736H193.959C193.767 31.936 193.505 31.3653 193.175 31.024C192.855 30.6827 192.412 30.512 191.847 30.512H191.463V35.648H192.071C193.052 35.648 193.884 35.3547 194.567 34.768C195.26 34.1813 195.735 33.4293 195.991 32.512H196.311L196.183 36H187.399V35.648H188.343V25.152H187.399V24.8ZM207.815 24.8H212.087V25.104H211.207V35.696H212.087V36H207.207V35.696H208.087V25.696H208.023L205.623 36H203.623L200.807 25.648H200.743V35.696H201.623V36H199.447V35.696H200.327V25.104H199.447V24.8H203.767L205.895 33.04L207.815 24.8ZM214.884 24.8H219.764V25.104H218.884V35.696H219.764V36H214.884V35.696H215.764V25.104H214.884V24.8ZM226.508 32.592C226.508 33.5733 226.673 34.3253 227.004 34.848C227.345 35.3707 227.953 35.632 228.828 35.632C229.703 35.632 230.375 35.36 230.844 34.816C231.313 34.272 231.548 33.4453 231.548 32.336V25.104H230.508V24.8H232.844V25.104H231.964V32.224C231.964 33.5467 231.671 34.5333 231.084 35.184C230.497 35.8347 229.457 36.16 227.964 36.16C226.481 36.16 225.345 35.8507 224.556 35.232C223.777 34.6133 223.388 33.552 223.388 32.048V25.104H222.508V24.8H227.548V25.104H226.508V32.592ZM243.862 24.8H248.134V25.104H247.254V35.696H248.134V36H243.254V35.696H244.134V25.696H244.07L241.67 36H239.67L236.854 25.648H236.79V35.696H237.67V36H235.494V35.696H236.374V25.104H235.494V24.8H239.814L241.942 33.04L243.862 24.8Z" fill="white"/>
</svg>
