<svg width="108" height="36" viewBox="0 0 108 36" fill="none" xmlns="http://www.w3.org/2000/svg">
<path d="M47.7101 5.11736H49.8076V10.1157H50.6645V5.11736H52.646L52.7441 4.31406H47.8083L47.7101 5.11736Z" fill="#051462"/>
<path d="M60.7314 10.1157H61.5882V4.31406H60.7314V6.85786H57.3932V4.31406H56.5363V10.1157H57.3932V7.66116H60.7314V10.1157Z" fill="#051462"/>
<path d="M66.0955 10.1157H70.2102L70.3084 9.32133H66.9523V7.60761H69.6925L69.7907 6.8043H66.9523V5.11736H70.2013L70.2994 4.31406H66.0955V10.1157Z" fill="#051462"/>
<path d="M51.4945 20.0856H51.5481L53.7617 17.2384V20.8265H54.5917V14.9534H54.5293L51.5213 18.8807L48.4955 14.9534H48.4241V20.8265H49.2631V17.2473L51.4945 20.0856Z" fill="#051462"/>
<path d="M63.9009 20.041C64.4365 19.4965 64.7667 18.7557 64.7667 17.9256C64.7667 17.1045 64.4454 16.3636 63.9099 15.8281C63.3565 15.2836 62.5978 14.9445 61.7409 14.9445C60.8841 14.9445 60.1254 15.2836 59.572 15.8281C59.0365 16.3636 58.7152 17.1045 58.7152 17.9256C58.7152 18.7646 59.0365 19.4965 59.5809 20.0321C60.1254 20.5765 60.8841 20.9068 61.7409 20.9068C62.5978 20.9068 63.3565 20.5855 63.9009 20.041ZM60.2147 19.4787C59.8219 19.086 59.5899 18.5326 59.5899 17.9256C59.5899 17.3187 59.8219 16.7742 60.2236 16.3904C60.5985 15.9977 61.134 15.7656 61.7409 15.7656C62.339 15.7656 62.8834 15.9977 63.2672 16.3904C63.651 16.7742 63.892 17.3187 63.892 17.9256C63.892 18.5415 63.651 19.0949 63.2583 19.4787C62.8745 19.8714 62.33 20.1035 61.7409 20.1035C61.1429 20.1035 60.6074 19.8714 60.2147 19.4787Z" fill="#051462"/>
<path d="M68.8847 20.8265H69.7327V18.122L72.3925 20.8265H73.535L71.0983 18.3987C71.2322 18.4165 71.3125 18.4165 71.3928 18.4165H71.7498C72.8031 18.4165 73.4993 17.7739 73.4993 16.7564C73.4993 15.7478 72.7584 15.0248 71.6963 15.0248H68.8847V20.8265ZM71.6249 15.8103C72.214 15.8103 72.5978 16.1941 72.5978 16.7564C72.5978 17.3187 72.214 17.7471 71.6249 17.7471H69.7327V15.8103H71.6249Z" fill="#051462"/>
<path d="M82.693 15.0248H81.8719V18.9699L77.7482 14.9712H77.6768V20.8265H78.498V16.8724L82.6305 20.88H82.693V15.0248Z" fill="#051462"/>
<path d="M87.2011 20.8265H88.0579V15.0248H87.2011V20.8265Z" fill="#051462"/>
<path d="M97.5838 15.0248H96.7626V18.9699L92.639 14.9712H92.5676V20.8265H93.3888V16.8724L97.5213 20.88H97.5838V15.0248Z" fill="#051462"/>
<path d="M106.216 20.6301C106.635 20.4337 106.992 20.1749 107.322 19.8179V17.7025H104.752V18.4612L106.465 18.4522V19.4965C106.028 19.9071 105.475 20.1213 104.823 20.1213C104.198 20.1213 103.636 19.9071 103.234 19.5322C102.824 19.1395 102.565 18.5504 102.565 17.9256C102.565 17.283 102.824 16.7207 103.243 16.3279C103.636 15.9709 104.172 15.7567 104.787 15.7567C105.528 15.7567 106.064 16.0334 106.599 16.6046L107.224 16.0245C106.608 15.3193 105.76 14.9445 104.787 14.9445C103.966 14.9445 103.208 15.239 102.654 15.7656C102.065 16.2833 101.708 17.0777 101.708 17.9256C101.708 18.7646 102.065 19.5858 102.663 20.1124C103.216 20.639 103.984 20.9068 104.814 20.9068C105.332 20.9068 105.778 20.8175 106.216 20.6301Z" fill="#051462"/>
<path d="M53.2975 26.6013C52.7441 25.9855 51.9855 25.6552 51.0572 25.6552C50.245 25.6552 49.5131 25.9408 48.9686 26.4674C48.3795 26.9851 48.0403 27.8063 48.0403 28.6453C48.0403 29.4932 48.3706 30.2965 48.9507 30.8142C49.4952 31.3319 50.245 31.6175 51.0572 31.6175C51.9319 31.6175 52.7352 31.323 53.3243 30.6357L52.7352 30.0555C52.2711 30.5643 51.7088 30.8053 51.0483 30.8053C50.4681 30.8053 49.9236 30.5911 49.5309 30.2162C49.1471 29.8235 48.915 29.2522 48.915 28.6364C48.915 28.0205 49.156 27.4582 49.5398 27.0655C49.9415 26.6906 50.4681 26.4674 51.0483 26.4674C51.6998 26.4674 52.28 26.7352 52.6906 27.1993L53.2975 26.6013Z" fill="#051462"/>
<path d="M61.9398 30.7517C62.4753 30.2073 62.8055 29.4665 62.8055 28.6364C62.8055 27.8152 62.4842 27.0744 61.9487 26.5389C61.3953 25.9944 60.6366 25.6552 59.7798 25.6552C58.9229 25.6552 58.1642 25.9944 57.6108 26.5389C57.0753 27.0744 56.754 27.8152 56.754 28.6364C56.754 29.4754 57.0753 30.2073 57.6198 30.7428C58.1642 31.2873 58.9229 31.6175 59.7798 31.6175C60.6366 31.6175 61.3953 31.2962 61.9398 30.7517ZM58.2535 30.1894C57.8607 29.7967 57.6287 29.2433 57.6287 28.6364C57.6287 28.0294 57.8607 27.485 58.2624 27.1012C58.6373 26.7084 59.1728 26.4764 59.7798 26.4764C60.3778 26.4764 60.9222 26.7084 61.306 27.1012C61.6898 27.485 61.9308 28.0294 61.9308 28.6364C61.9308 29.2522 61.6898 29.8056 61.2971 30.1894C60.9133 30.5822 60.3688 30.8142 59.7798 30.8142C59.1817 30.8142 58.6462 30.5822 58.2535 30.1894Z" fill="#051462"/>
<path d="M71.9397 25.7355H71.1186V29.6807L66.9949 25.682H66.9235V31.5372H67.7447V27.5831L71.8772 31.5908H71.9397V25.7355Z" fill="#051462"/>
<path d="M75.7337 26.5389H77.8313V31.5372H78.6881V26.5389H80.6696L80.7678 25.7355H75.8319L75.7337 26.5389Z" fill="#051462"/>
<path d="M84.56 31.5372H88.6747L88.7729 30.7428H85.4169V29.0291H88.157L88.2552 28.2258H85.4169V26.5389H88.6658L88.764 25.7355H84.56V31.5372Z" fill="#051462"/>
<path d="M96.7373 31.5372H97.7637L95.5055 28.565L97.6655 25.7355H96.6926L94.9878 27.958L93.3455 25.7355H92.328L94.4523 28.6185L92.2209 31.5372H93.2116L94.9789 29.2255L96.7373 31.5372Z" fill="#051462"/>
<path d="M100.855 26.5389H102.952V31.5372H103.809V26.5389H105.791L105.889 25.7355H100.953L100.855 26.5389Z" fill="#051462"/>
<circle cx="18" cy="18" r="18" fill="url(#paint0_linear_187_545)"/>
<defs>
<linearGradient id="paint0_linear_187_545" x1="0" y1="17.8512" x2="36" y2="17.8512" gradientUnits="userSpaceOnUse">
<stop stop-color="#55C79A"/>
<stop offset="0.520833" stop-color="#907CFF"/>
<stop offset="1" stop-color="#FC876D"/>
</linearGradient>
</defs>
</svg>
