<svg width="23" height="18" viewBox="0 0 23 18" fill="none" xmlns="http://www.w3.org/2000/svg">
<path d="M22.0193 2.35238C21.2053 2.69369 20.338 2.91992 19.4337 3.02977C20.364 2.49884 21.074 1.66454 21.4078 0.658921C20.5405 1.15323 19.5828 1.50238 18.5622 1.69723C17.7387 0.858998 16.5649 0.339844 15.2844 0.339844C12.8 0.339844 10.7999 2.26738 10.7999 4.63038C10.7999 4.97038 10.83 5.29731 10.9039 5.60854C7.17318 5.43461 3.87206 3.72546 1.65445 1.12184C1.26729 1.76392 1.04019 2.49884 1.04019 3.29C1.04019 4.77554 1.8405 6.09238 3.03345 6.85477C2.31248 6.84169 1.6052 6.64161 1.00599 6.32646C1.00599 6.33954 1.00599 6.35654 1.00599 6.37354C1.00599 8.458 2.56147 10.1894 4.60124 10.5882C4.23597 10.6837 3.83786 10.7295 3.42471 10.7295C3.13742 10.7295 2.84739 10.7138 2.57515 10.6562C3.15657 12.3549 4.80645 13.6038 6.76824 13.6443C5.24149 14.7859 3.30295 15.4738 1.20436 15.4738C0.836349 15.4738 0.48339 15.4581 0.130432 15.4149C2.11822 16.6402 4.47401 17.3398 7.01449 17.3398C15.2721 17.3398 19.7867 10.8014 19.7867 5.13384C19.7867 4.94423 19.7798 4.76115 19.7702 4.57938C20.6608 3.97523 21.4092 3.22069 22.0193 2.35238Z" fill="white"/>
</svg>
