<svg width="25" height="17" viewBox="0 0 25 17" fill="none" xmlns="http://www.w3.org/2000/svg">
<path d="M23.6503 3.34692C23.5144 2.86215 23.2497 2.42327 22.8843 2.07692C22.5086 1.71992 22.0481 1.46456 21.5463 1.33492C19.6683 0.83992 12.1443 0.83992 12.1443 0.83992C9.00767 0.804232 5.87177 0.961194 2.75434 1.30992C2.25253 1.44913 1.7929 1.71021 1.41634 2.06992C1.04634 2.42592 0.778336 2.86492 0.638336 3.34592C0.302029 5.15766 0.138628 6.99726 0.150336 8.83992C0.138336 10.6809 0.301336 12.5199 0.638336 14.3339C0.775336 14.8129 1.04234 15.2499 1.41334 15.6029C1.78434 15.9559 2.24634 16.2109 2.75434 16.3459C4.65734 16.8399 12.1443 16.8399 12.1443 16.8399C15.285 16.8757 18.4249 16.7187 21.5463 16.3699C22.0481 16.2403 22.5086 15.9849 22.8843 15.6279C23.2543 15.2749 23.5173 14.8359 23.6493 14.3579C23.9944 12.5469 24.1622 10.7065 24.1503 8.86292C24.1763 7.01152 24.0087 5.16248 23.6503 3.34592V3.34692ZM9.75234 12.2639V5.41692L16.0123 8.84092L9.75234 12.2639Z" fill="white"/>
</svg>
